# xmcd CD database file
#
# Track frame offsets:
#	180
#	43553
#	86651
#	133972
#	168585
#	203957
#	237829
#
# Disc length: 3433 seconds
#
# Revision: 1
# Processed by: cddbd v1.4PL0 Copyright (c) Steve Scherf et al.
# Submitted via: NeoAudio 9.9.9
#
DISCID=5f0d6707
DTITLE=stefano saccon feat. enrico rava - underscore - live at bird's eye
DYEAR=1900
DGENRE=Jazz
TTITLE0=instinct
TTITLE1=le pendule
TTITLE2=underscore
TTITLE3=cecilia
TTITLE4=entre sixte
TTITLE5=en attendant fredo
TTITLE6=deux
EXTD=
EXTT0=
EXTT1=
EXTT2=
EXTT3=
EXTT4=
EXTT5=
EXTT6=
PLAYORDER=
